<svg xmlns="http://www.w3.org/2000/svg" width="32" height="32" viewBox="0 0 32 32">
  <rect width="32" height="32" rx="6" fill="#FDFCFB"/>
  <path d="M16 6C14.5 6 13 7.5 13 9C13 10.5 14 12 14 14C14 16 12 18 10 18C8 18 6 16 6 14" 
        stroke="#4A5D4E" stroke-width="2" stroke-linecap="round" fill="none"/>
  <path d="M16 6C17.5 6 19 7.5 19 9C19 10.5 18 12 18 14C18 16 20 18 22 18C24 18 26 16 26 14" 
        stroke="#4A5D4E" stroke-width="2" stroke-linecap="round" fill="none"/>
  <circle cx="16" cy="24" r="2" fill="#4A5D4E"/>
</svg>
