<?xml version="1.0" standalone="no"?>
<!DOCTYPE svg PUBLIC "-//W3C//DTD SVG 20010904//EN"
 "http://www.w3.org/TR/2001/REC-SVG-20010904/DTD/svg10.dtd">
<svg version="1.0" xmlns="http://www.w3.org/2000/svg"
 width="1024.000000pt" height="1024.000000pt" viewBox="0 0 1024.000000 1024.000000"
 preserveAspectRatio="xMidYMid meet">

<g transform="translate(0.000000,1024.000000) scale(0.100000,-0.100000)"
fill="#000000" stroke="none">
<path d="M5030 8721 c-96 -31 -193 -111 -238 -196 -23 -43 -27 -62 -27 -140 0
-78 4 -98 29 -152 16 -35 35 -68 42 -74 11 -9 8 -16 -15 -38 -33 -31 -55 -97
-45 -138 12 -53 54 -112 98 -138 46 -27 113 -34 134 -13 20 20 14 -61 -7 -109
-22 -46 -82 -96 -139 -113 -63 -19 -80 -31 -75 -50 14 -51 -79 -373 -97 -338
-17 31 -42 175 -37 216 5 48 40 92 88 113 17 6 28 14 25 16 -2 2 -23 -5 -45
-17 -82 -41 -98 -112 -61 -266 14 -60 18 -100 13 -151 -7 -82 10 -130 75 -212
44 -56 56 -100 56 -207 0 -80 -30 -131 -151 -261 -145 -155 -173 -197 -236
-345 -59 -138 -85 -232 -98 -361 -17 -171 -1 -308 91 -792 11 -60 27 -154 35
-208 l15 -98 -40 -122 c-74 -229 -83 -321 -55 -572 39 -346 23 -944 -30 -1157
-5 -21 7 -32 107 -100 123 -84 153 -98 201 -98 32 0 40 4 119 53 35 21 52 26
77 21 39 -8 42 -14 75 -175 45 -219 47 -263 25 -474 -10 -104 -22 -202 -25
-217 -3 -15 -27 -57 -54 -92 -26 -36 -51 -81 -54 -101 l-7 -35 -822 -2 -822
-3 820 -2 c598 -2 826 -6 842 -14 25 -13 144 -7 206 11 60 18 39 20 -33 5 -36
-8 -88 -14 -117 -15 -67 0 -75 20 -39 94 37 75 54 88 97 76 18 -6 59 -9 89 -9
51 2 49 2 -23 9 -43 4 -80 10 -83 13 -3 3 -1 22 5 44 6 21 20 126 31 232 25
239 20 284 -69 691 -33 151 -71 331 -85 400 -22 116 -31 168 -56 340 l-9 65 5
-73 c6 -103 38 -292 90 -539 24 -116 44 -213 44 -215 0 -3 -19 -4 -42 -4 -34
1 -53 -6 -89 -32 -53 -39 -110 -50 -154 -30 -17 7 -70 40 -118 72 -60 41 -84
62 -75 68 9 5 3 8 -14 8 -33 0 -34 8 -13 130 36 214 46 714 19 970 -26 251
-28 345 -9 440 57 284 345 986 503 1226 33 51 65 95 71 98 6 4 11 12 11 17 0
21 -22 -5 -84 -99 -98 -149 -205 -375 -362 -764 -21 -54 -42 -98 -45 -98 -3 0
-11 42 -18 93 -6 50 -23 148 -37 217 -71 360 -88 507 -81 695 7 181 38 297
133 487 44 90 84 144 209 278 57 61 108 126 122 155 42 92 24 239 -40 317 -80
97 -94 173 -51 273 14 33 37 92 52 130 l27 70 6 -46 c9 -59 28 -95 76 -140 57
-53 95 -77 146 -91 55 -14 100 -2 157 42 82 64 237 161 273 171 58 16 75 -1
125 -127 24 -60 57 -134 72 -164 26 -49 30 -52 36 -32 3 12 10 22 15 22 5 0 9
-2 9 -3 0 -2 16 -82 35 -178 19 -96 35 -193 35 -215 0 -23 -18 -100 -39 -170
-22 -71 -58 -199 -80 -284 -23 -85 -46 -175 -53 -200 l-12 -44 -8 29 c-4 17
-12 67 -18 111 -6 45 -26 130 -45 190 -50 161 -56 191 -43 249 6 27 51 129 99
225 49 96 91 191 95 210 4 23 -6 8 -29 -45 -19 -44 -66 -142 -106 -218 -39
-76 -71 -148 -71 -160 0 -46 -8 -48 -148 -22 -150 28 -288 45 -347 44 -22 -1
14 -7 80 -15 156 -17 356 -54 350 -65 -5 -7 -36 -6 -220 6 -78 5 -190 26 -275
52 l-55 17 40 7 40 6 -47 2 c-56 1 -63 -14 -15 -34 97 -40 427 -84 533 -70 78
9 67 -10 -13 -25 -38 -7 -77 -17 -88 -22 -17 -7 -16 -8 5 -4 14 3 45 8 70 11
44 6 44 6 20 -9 -14 -8 -60 -29 -103 -47 -43 -17 -76 -34 -73 -36 3 -3 51 16
108 41 57 25 107 46 111 46 18 0 -64 -99 -156 -186 -266 -254 -598 -439 -756
-421 -27 3 -38 2 -30 -4 59 -37 288 43 484 168 155 100 395 315 454 407 29 47
30 48 37 22 4 -19 1 -31 -13 -44 -11 -9 -51 -57 -89 -107 -78 -102 -302 -329
-543 -550 -224 -205 -314 -328 -342 -463 -10 -47 -10 -67 -1 -86 28 -61 106
-9 197 131 31 49 83 129 115 178 70 109 182 237 281 324 41 36 130 121 199
190 136 137 182 206 202 306 l11 56 23 -73 c46 -141 46 -157 4 -245 -56 -118
-141 -224 -362 -451 -259 -266 -329 -347 -423 -487 -84 -124 -144 -252 -225
-475 -104 -285 -128 -405 -99 -490 7 -18 53 -94 103 -169 90 -135 226 -384
226 -415 0 -9 4 -16 9 -16 5 0 16 -17 24 -37 8 -21 47 -103 85 -183 95 -199
204 -448 239 -550 24 -68 31 -108 36 -200 7 -127 27 -220 57 -262 27 -37 25
-71 -14 -228 -19 -74 -37 -160 -40 -190 -11 -87 -17 -109 -33 -125 -8 -8 -10
-15 -5 -15 21 0 32 30 46 121 8 52 28 150 45 219 17 68 31 139 31 157 0 40 6
41 34 6 51 -64 59 -108 28 -171 -10 -20 -19 -50 -21 -67 -1 -16 -6 -46 -10
-65 -9 -33 -9 -32 -10 19 -1 53 -2 54 -20 37 -40 -36 -64 -115 -72 -236 -4
-63 -8 -116 -8 -117 -1 0 -16 -10 -33 -22 -18 -11 -28 -21 -21 -21 7 0 25 11
40 24 27 23 28 29 34 138 4 84 11 125 27 161 33 74 42 60 42 -67 0 -63 4 -117
9 -120 4 -3 11 41 14 97 4 56 17 138 29 182 32 115 30 172 -6 220 -16 21 -38
40 -48 43 -40 10 -72 111 -82 257 l-6 80 30 -85 c39 -109 94 -217 175 -340 36
-55 70 -110 75 -122 5 -13 13 -81 18 -151 9 -134 17 -155 53 -136 27 14 29 12
29 -25 0 -45 22 -95 58 -129 59 -57 67 -57 756 -55 l631 2 -650 6 -650 5 -45
25 c-55 31 -90 88 -90 149 0 38 8 54 56 119 67 89 114 175 114 209 0 30 -16
61 -79 153 -28 41 -56 90 -61 109 -12 42 -13 111 -2 111 4 0 43 -32 86 -70 73
-65 96 -80 96 -63 0 3 -24 31 -53 62 -29 31 -67 74 -84 96 -18 22 -32 37 -33
33 0 -4 20 -32 45 -62 25 -31 45 -59 45 -62 0 -4 -20 12 -45 35 -24 22 -49 41
-55 41 -5 0 -10 16 -10 36 0 20 4 33 10 29 20 -12 -34 95 -61 121 -24 22 -40
29 -89 32 -59 4 -61 6 -81 43 -30 59 -62 192 -128 524 -82 414 -101 488 -146
575 -27 52 -43 192 -37 322 2 65 -1 174 -8 243 l-12 126 51 91 c59 107 62 130
4 31 -143 -242 -234 -430 -232 -480 l1 -28 7 29 c6 29 6 28 18 -16 7 -25 30
-68 53 -96 71 -90 137 -200 164 -269 35 -95 56 -183 126 -532 87 -438 107
-511 155 -561 13 -14 47 -75 75 -135 28 -61 73 -153 100 -205 90 -178 97 -254
27 -299 -18 -11 -26 -21 -19 -21 24 0 70 56 77 92 5 25 -1 56 -19 108 -29 84
-28 83 48 -28 31 -46 56 -94 56 -108 0 -33 -37 -104 -95 -184 -64 -88 -95
-120 -117 -120 -22 0 -27 20 -30 138 l-3 92 35 2 35 1 -33 4 c-26 4 -36 12
-54 46 -11 23 -37 67 -58 97 -115 172 -151 246 -211 442 -46 150 -87 256 -169
443 -52 118 -90 198 -260 550 -77 160 -144 277 -221 385 -37 52 -74 112 -83
134 -32 77 -18 166 67 412 99 288 177 453 280 597 65 89 262 317 275 317 12 0
53 -67 77 -127 69 -172 71 -378 5 -535 -30 -73 -31 -119 -2 -76 26 36 271 479
293 527 10 24 19 51 18 60 0 13 -1 14 -6 1 -18 -51 -262 -502 -283 -524 -5 -5
1 20 12 55 17 52 21 91 22 209 1 135 -1 151 -28 234 -16 49 -44 111 -63 139
l-34 50 129 131 c194 198 266 286 331 406 37 69 39 71 45 44 4 -16 7 -63 8
-104 2 -79 -5 -99 -77 -223 -23 -40 -29 -66 -36 -150 -5 -56 -11 -132 -15
-168 -11 -112 30 -100 61 18 23 86 35 100 35 40 0 -60 -17 -100 -75 -182 -45
-63 -61 -114 -39 -122 7 -2 10 5 7 21 -4 18 6 42 35 84 69 101 82 135 82 207
0 36 -4 65 -9 65 -11 0 -34 -59 -51 -128 -12 -50 -25 -71 -37 -58 -6 5 4 104
26 276 6 47 18 81 45 125 40 66 70 152 122 355 42 161 77 286 111 395 46 148
46 144 -7 409 -86 429 -105 496 -139 496 -14 -1 -14 -2 0 -10 22 -13 33 -44
64 -173 28 -123 30 -145 11 -170 -12 -16 -20 -2 -76 130 -34 81 -68 158 -76
171 -32 49 -106 22 -278 -102 -167 -119 -185 -124 -273 -81 -98 49 -172 146
-173 227 0 35 32 187 44 206 3 6 18 13 33 17 47 11 112 66 134 113 32 65 30
199 -5 302 -13 41 -25 67 -25 58 -1 -28 -25 -21 -73 22 -204 179 -171 469 65
584 104 51 249 45 301 -13 16 -18 14 -18 -51 -16 -37 1 -50 1 -28 -1 67 -7 83
-13 121 -47 44 -38 94 -138 94 -187 0 -19 7 -60 15 -90 13 -46 13 -71 4 -150
-17 -136 -19 -140 -76 -140 -37 0 -44 -3 -33 -11 11 -8 12 -12 3 -16 -19 -7
-16 -98 3 -139 25 -53 81 -74 190 -72 l89 1 -95 7 c-143 9 -190 44 -190 143 0
48 10 62 53 72 42 11 54 39 66 147 9 79 8 110 -4 168 -8 39 -15 83 -15 98 0
35 -40 119 -76 159 -16 18 -36 45 -45 61 -24 42 -81 66 -169 69 -41 1 -86 -1
-100 -6z m-131 -625 c19 -19 46 -40 62 -46 33 -14 46 -47 55 -136 7 -63 7 -64
-22 -74 -60 -23 -141 15 -182 85 -31 54 -27 143 8 180 31 33 40 32 79 -9z
m-88 -562 c-7 -31 -9 -34 -10 -12 -1 27 9 62 15 55 3 -2 0 -22 -5 -43z m655
-1224 c-19 -121 -93 -230 -254 -377 -213 -194 -356 -344 -418 -440 -32 -51
-85 -132 -117 -182 -59 -91 -134 -171 -161 -171 -47 0 -40 103 14 210 47 94
115 174 273 322 247 231 488 476 571 581 43 53 83 97 88 97 7 0 8 -15 4 -40z
m-472 -2126 c2 -121 6 -236 10 -255 6 -30 5 -32 -6 -15 -7 10 -27 37 -45 60
-141 181 -143 211 -27 423 l48 88 9 -40 c5 -22 10 -139 11 -261z m472 -1533
c49 -30 64 -74 64 -189 0 -56 5 -113 10 -128 6 -15 8 -29 6 -32 -3 -2 -37 63
-76 144 -39 82 -79 166 -89 187 l-19 37 36 0 c20 0 51 -9 68 -19z"/>
<path d="M5105 8641 c-29 -12 -84 -70 -105 -111 -21 -42 -40 -126 -40 -180 0
-59 -7 -70 -41 -63 -87 17 -71 -100 20 -147 l40 -20 12 21 c9 17 8 23 -2 30
-10 6 -15 3 -17 -11 -4 -24 -5 -24 -42 -5 -34 18 -63 66 -58 98 3 19 8 22 45
19 41 -2 42 -1 47 30 31 225 56 281 146 329 35 18 32 25 -5 10z"/>
<path d="M5020 8134 c0 -21 43 -66 77 -81 19 -7 71 -16 116 -18 l82 -4 -83 9
c-104 12 -146 30 -172 72 -11 18 -20 28 -20 22z"/>
<path d="M5031 8000 c15 -45 24 -54 15 -15 -4 17 -12 34 -17 40 -5 5 -4 -6 2
-25z"/>
<path d="M5050 7946 c0 -18 83 -322 89 -329 5 -4 -12 67 -36 160 -39 149 -53
193 -53 169z"/>
<path d="M5650 7810 c125 -22 167 -66 210 -221 18 -65 89 -546 119 -804 28
-240 1 -342 -201 -744 -133 -263 -146 -304 -154 -475 -6 -125 -8 -135 -43
-204 -20 -41 -60 -101 -90 -135 l-53 -62 58 60 c33 33 75 92 95 130 35 66 37
77 43 195 3 69 12 150 18 180 7 31 64 159 130 292 158 319 187 390 213 522 16
86 6 212 -55 640 -57 401 -85 513 -148 579 -28 30 -107 58 -156 56 -25 -1 -22
-3 14 -9z"/>
<path d="M5480 7750 c-9 -6 -10 -10 -3 -10 6 0 15 5 18 10 8 12 4 12 -15 0z"/>
<path d="M5395 7711 c-22 -11 -36 -20 -32 -20 12 -1 77 27 77 33 0 8 0 8 -45
-13z"/>
<path d="M5285 7676 c-60 -15 -95 -33 -95 -48 0 -6 7 -5 18 5 9 8 43 22 75 30
33 9 62 18 65 21 7 8 -4 6 -63 -8z"/>
<path d="M4975 7600 l-50 -7 45 -1 c25 0 54 3 65 8 23 10 12 10 -60 0z"/>
<path d="M5157 7302 c-27 -28 -73 -142 -57 -142 5 0 12 15 15 33 9 41 32 86
58 115 30 32 16 27 -16 -6z"/>
<path d="M5049 7274 c11 -18 25 -42 30 -55 l10 -24 0 22 c1 13 -13 37 -30 55
l-31 33 21 -31z"/>
<path d="M5534 7063 c-10 -42 -31 -80 -62 -109 -23 -23 -24 -25 -4 -15 27 14
67 75 77 119 8 39 -2 43 -11 5z"/>
<path d="M5234 7047 c-18 -12 -40 -28 -50 -35 -11 -7 -1 -4 21 7 45 22 85 51
70 50 -5 0 -24 -10 -41 -22z"/>
<path d="M5115 6983 c-16 -9 -78 -33 -138 -53 -116 -40 -135 -50 -94 -50 15 0
27 4 27 8 0 4 32 18 70 31 72 23 180 69 180 77 0 8 -15 3 -45 -13z"/>
<path d="M5410 6919 c-14 -6 -52 -14 -85 -18 -58 -8 -58 -9 -15 -10 50 -1 116
14 125 29 7 12 7 12 -25 -1z"/>
<path d="M4938 6883 c6 -2 18 -2 25 0 6 3 1 5 -13 5 -14 0 -19 -2 -12 -5z"/>
<path d="M5248 6403 c7 -3 16 -2 19 1 4 3 -2 6 -13 5 -11 0 -14 -3 -6 -6z"/>
<path d="M5117 6370 c-107 -37 -327 -139 -327 -153 0 -16 89 -1 200 33 56 18
100 34 97 36 -2 2 -46 -9 -98 -25 -52 -15 -112 -31 -134 -35 -39 -7 -39 -7
-17 9 38 27 172 86 287 126 61 21 103 38 95 38 -8 0 -55 -13 -103 -29z"/>
<path d="M5140 6313 c-25 -9 -40 -18 -33 -20 6 -2 31 5 55 16 52 23 40 25 -22
4z"/>
<path d="M4607 3601 c2 -95 19 -278 43 -470 22 -174 40 -335 40 -358 0 -64
-17 -69 -151 -38 -61 14 -116 25 -122 25 -27 0 7 -10 115 -34 151 -34 168 -29
168 47 0 29 -16 178 -35 332 -19 154 -40 343 -45 420 -17 231 -18 237 -13 76z"/>
</g>
</svg>
